<svg version="1.1" xmlns="http://www.w3.org/2000/svg" viewBox="0 0 1594.284568590294 768.0108376728026" width="1594.284568590294" height="768.0108376728026">
  <!-- svg-source:excalidraw -->
  
  <defs>
    <style>
      @font-face {
        font-family: "Virgil";
        src: url("https://unpkg.com/@excalidraw/excalidraw@0.12.0/dist/excalidraw-assets/Virgil.woff2");
      }
      @font-face {
        font-family: "Cascadia";
        src: url("https://unpkg.com/@excalidraw/excalidraw@0.12.0/dist/excalidraw-assets/Cascadia.woff2");
      }
    </style>
  </defs>
  <rect x="0" y="0" width="1594.284568590294" height="768.0108376728026" fill="#ffffff"></rect><g stroke-linecap="round" transform="translate(10 301.34604882399924) rotate(0 152.22219848632812 56.66667175292969)"><path d="M-1.35 -0.89 C121.92 1.95, 242.59 1.89, 305.01 1.15 M-0.36 -0.37 C65.29 -0.81, 128.5 -0.25, 304.03 -0.38 M305.5 1.52 C304.58 39.35, 303.72 77.14, 305.74 112.8 M304.89 -0.44 C304.69 36.82, 304.18 72.79, 304.08 114.29 M304.89 113.45 C211.94 111.05, 117.88 111.36, 1.22 113.89 M304.61 112.96 C204.89 113.07, 105.86 114.09, 0.6 113.05 M-1 112.68 C-0.97 71.47, 0.97 25.9, -1.34 1.2 M0.79 114.32 C0.19 68.23, 0.18 24.49, -0.39 0.72" stroke="#000000" stroke-width="1" fill="none"></path></g><g stroke-linecap="round" transform="translate(401.3110530110598 181.25266287882926) rotate(0 86.33320109049475 160.6667022705078)"><path d="M-0.57 1.52 C59.48 -1, 122.76 -0.08, 174.21 1.72 M-0.29 0.65 C65.1 1.41, 129.74 -0.17, 172.44 -0.77 M172.64 -0.03 C175.87 83.29, 175.55 168.04, 172.59 321.2 M172.28 0.15 C173.06 117.21, 173.79 233.9, 172.01 321.52 M172.93 320.25 C117.47 320.34, 64.17 322.1, -1.99 322.74 M173.01 322.33 C120.69 321.05, 68.8 320.48, 0.58 322.1 M0.86 321.16 C-0.39 236.72, -1.54 154.31, 0.55 -0.46 M-0.69 320.81 C1.54 241.71, 0.94 163.4, -0.15 -0.23" stroke="#000000" stroke-width="1" fill="none"></path></g><g stroke-linecap="round" transform="translate(1154.2608997435736 297.89678242924856) rotate(0 181.28019748391853 44.86960156463721)"><path d="M-0.53 0.71 C114.43 1.9, 228.62 1.35, 361.38 0.31 M-0.16 0 C140.79 1.29, 281.51 1.6, 362.51 -0.17 M361.5 1.94 C361.48 26.73, 363.68 51.06, 364.53 91.09 M362.71 -0.82 C361.55 33.65, 362.31 66.01, 362.47 89.75 M361.9 90.92 C251.15 89.01, 139.72 88.77, 0.09 89.21 M362.92 89.81 C288.78 91.87, 214.36 91.34, -0.49 89.78 M-0.73 90.4 C0.89 65.51, 1.7 44.63, 1.73 0.7 M-0.45 89.2 C1.04 61.44, 1.06 32.36, 0.34 -0.63" stroke="#000000" stroke-width="1" fill="none"></path></g><g transform="translate(41.98626952178029 256.99810770039915) rotate(0 112.08337437343164 18.021248428669423)"><text x="0" y="28.042496857338797" font-family="Helvetica, Segoe UI Emoji" font-size="31.647070411321874px" fill="#364fc7" text-anchor="start" style="white-space: pre;" direction="ltr">Input Document</text></g><g transform="translate(381.8388081952603 141.70318677845512) rotate(0 108.72932382403383 17.413680768692927)"><text x="0" y="27.827361537385833" font-family="Helvetica, Segoe UI Emoji" font-size="30.580122325509503px" fill="#364fc7" text-anchor="start" style="white-space: pre;" direction="ltr">Tokenize Words</text></g><g transform="translate(770.4845922156601 81.94276557539672) rotate(0 99 17)"><text x="0" y="27" font-family="Cascadia, Segoe UI Emoji" font-size="28px" fill="#0b7285" text-anchor="start" style="white-space: pre;" direction="ltr">Embed Tokens</text></g><g transform="translate(692.8916050136372 10) rotate(0 146.85429739770518 18.64094796689136)"><text x="0" y="30.28189593378275" font-family="Helvetica, Segoe UI Emoji" font-size="32.7353232589312px" fill="#364fc7" text-anchor="start" style="white-space: pre;" direction="ltr">Extract Embeddings</text></g><g transform="translate(710.0731747277 338.7930782652887) rotate(0 164.755064392632 29.638477192325325)"><text x="164.755064392632" y="23.638477192325322" font-family="Cascadia, Segoe UI Emoji" font-size="24.408157687797324px" fill="#0b7285" text-anchor="middle" style="white-space: pre;" direction="ltr">Average seed keyword </text><text x="164.755064392632" y="53.276954384650644" font-family="Cascadia, Segoe UI Emoji" font-size="24.408157687797324px" fill="#0b7285" text-anchor="middle" style="white-space: pre;" direction="ltr">and document embeddings</text></g><g transform="translate(1212.6205456412952 219.70398294626193) rotate(0 123.70834794710288 38.170233753195305)"><text x="123.7083479471029" y="30.170233753195312" font-family="Helvetica, Segoe UI Emoji" font-size="33.11152807506101px" fill="#364fc7" text-anchor="middle" style="white-space: pre;" direction="ltr">Calculate</text><text x="123.7083479471029" y="68.34046750639062" font-family="Helvetica, Segoe UI Emoji" font-size="33.11152807506101px" fill="#364fc7" text-anchor="middle" style="white-space: pre;" direction="ltr">Cosine Similarity</text></g><g transform="translate(30.000015258789062 312.95716332595237) rotate(0 135 41.5)"><text x="0" y="20.666666666666668" font-family="Virgil, Segoe UI Emoji" font-size="22.17865588618258px" fill="#000000" text-anchor="start" style="white-space: pre;" direction="ltr">Most microbats use </text><text x="0" y="48.333333333333336" font-family="Virgil, Segoe UI Emoji" font-size="22.17865588618258px" fill="#000000" text-anchor="start" style="white-space: pre;" direction="ltr">echolocationto navigate </text><text x="0" y="76" font-family="Virgil, Segoe UI Emoji" font-size="22.17865588618258px" fill="#000000" text-anchor="start" style="white-space: pre;" direction="ltr">and find food.</text></g><g transform="translate(731.6898659434482 554.5758652390643) rotate(0 61 27.5)"><text x="61" y="19.5" font-family="Virgil, Segoe UI Emoji" font-size="22.17865588618258px" fill="#000000" text-anchor="middle" style="white-space: pre;" direction="ltr">Most </text><text x="61" y="47" font-family="Virgil, Segoe UI Emoji" font-size="22.17865588618258px" fill="#000000" text-anchor="middle" style="white-space: pre;" direction="ltr">microbats...</text></g><g transform="translate(925.447156059741 557.0632097475414) rotate(0 30 13.5)"><text x="30" y="19" font-family="Virgil, Segoe UI Emoji" font-size="22.17865588618258px" fill="#000000" text-anchor="middle" style="white-space: pre;" direction="ltr">sonar</text></g><g transform="translate(415.9776332112551 195.53046439250113) rotate(0 75 144)"><text x="0" y="23" font-family="Virgil, Segoe UI Emoji" font-size="25.424312845136125px" fill="#000000" text-anchor="start" style="white-space: pre;" direction="ltr">most</text><text x="0" y="55" font-family="Virgil, Segoe UI Emoji" font-size="25.424312845136125px" fill="#000000" text-anchor="start" style="white-space: pre;" direction="ltr">microbats</text><text x="0" y="87" font-family="Virgil, Segoe UI Emoji" font-size="25.424312845136125px" fill="#000000" text-anchor="start" style="white-space: pre;" direction="ltr">use </text><text x="0" y="119" font-family="Virgil, Segoe UI Emoji" font-size="25.424312845136125px" fill="#000000" text-anchor="start" style="white-space: pre;" direction="ltr">echolocation</text><text x="0" y="151" font-family="Virgil, Segoe UI Emoji" font-size="25.424312845136125px" fill="#000000" text-anchor="start" style="white-space: pre;" direction="ltr">to</text><text x="0" y="183" font-family="Virgil, Segoe UI Emoji" font-size="25.424312845136125px" fill="#000000" text-anchor="start" style="white-space: pre;" direction="ltr">navigate </text><text x="0" y="215" font-family="Virgil, Segoe UI Emoji" font-size="25.424312845136125px" fill="#000000" text-anchor="start" style="white-space: pre;" direction="ltr">and</text><text x="0" y="247" font-family="Virgil, Segoe UI Emoji" font-size="25.424312845136125px" fill="#000000" text-anchor="start" style="white-space: pre;" direction="ltr">find</text><text x="0" y="279" font-family="Virgil, Segoe UI Emoji" font-size="25.424312845136125px" fill="#000000" text-anchor="start" style="white-space: pre;" direction="ltr">food</text></g><g stroke-linecap="round"><g transform="translate(338.8332773844397 352.71555512181226) rotate(0 24.267613196075956 0.35124721677271964)"><path d="M0.11 0.83 C8.45 1.18, 41.3 1.28, 49.83 1.3 M-1.29 0.23 C6.87 0.28, 39.93 -0.9, 48.65 -0.53" stroke="#000000" stroke-width="2" fill="none"></path></g><g transform="translate(338.8332773844397 352.71555512181226) rotate(0 24.267613196075956 0.35124721677271964)"><path d="M26.43 7.35 C32.67 7.29, 38.83 1.75, 50.5 0.99 M24.78 8.44 C31.65 6.66, 36.89 3.86, 48.17 -0.27" stroke="#000000" stroke-width="2" fill="none"></path></g><g transform="translate(338.8332773844397 352.71555512181226) rotate(0 24.267613196075956 0.35124721677271964)"><path d="M26.41 -9.84 C32.55 -5.05, 38.71 -5.73, 50.5 0.99 M24.77 -8.75 C31.5 -6.12, 36.75 -4.5, 48.17 -0.27" stroke="#000000" stroke-width="2" fill="none"></path></g></g><g stroke-linecap="round"><g transform="translate(588.618116659017 344.8390443250703) rotate(0 16.240903060352366 0.09624185837600407)"><path d="M0.47 1.13 C6.18 1.33, 27.87 0.99, 33.22 0.74 M-0.74 0.68 C4.89 0.58, 26.88 -1.01, 32.25 -1" stroke="#000000" stroke-width="2" fill="none"></path></g><g transform="translate(588.618116659017 344.8390443250703) rotate(0 16.240903060352366 0.09624185837600407)"><path d="M18.44 5.26 C21.25 2.97, 23.05 1.7, 33.41 -0.59 M16.15 4.67 C21.57 3.93, 26.61 0.57, 32.89 -0.55" stroke="#000000" stroke-width="2" fill="none"></path></g><g transform="translate(588.618116659017 344.8390443250703) rotate(0 16.240903060352366 0.09624185837600407)"><path d="M17.98 -6.1 C20.85 -5.93, 22.75 -4.74, 33.41 -0.59 M15.7 -6.7 C21.2 -3.65, 26.4 -3.22, 32.89 -0.55" stroke="#000000" stroke-width="2" fill="none"></path></g></g><g stroke-linecap="round"><g transform="translate(766.2997789467574 131.50148222967937) rotate(0 -0.3603741368511919 58.395572234154656)"><path d="M0.07 -1.02 C0.13 18.38, 0.68 97.04, 0.64 116.64 M-1.36 1.05 C-1.43 20.59, -0.03 98.41, 0.02 117.82" stroke="#000000" stroke-width="2" fill="none"></path></g></g><g stroke-linecap="round"><g transform="translate(750.6840798380051 424.9229248082341) rotate(0 0.7835678047081274 58.78827979585617)"><path d="M-0.25 0.12 C-0.2 20.06, 0.54 98.8, 0.49 118.44 M1.82 -0.86 C1.74 18.87, 0.37 97.43, -0.2 116.89" stroke="#000000" stroke-width="2" fill="none"></path></g></g><g stroke-linecap="round"><g transform="translate(927.2361035199713 425.4357823863207) rotate(0 -0.19983013495811974 58.30188919459462)"><path d="M-1.07 -0.35 C-1.05 19.17, 0.69 97.15, 0.67 116.89 M0.57 -1.58 C0.44 18.12, -0.01 98.57, 0.07 118.19" stroke="#000000" stroke-width="2" fill="none"></path></g></g><g stroke-linecap="round"><g transform="translate(907.312055668787 130.93597058185026) rotate(0 -0.051383505497483384 58.66422028616063)"><path d="M0.57 -0.82 C0.45 18.85, 0.58 98.35, 0.42 118.15 M-0.59 1.37 C-0.93 20.69, -0.17 97.36, -0.31 116.45" stroke="#000000" stroke-width="2" fill="none"></path></g></g><g stroke-linecap="round"><g transform="translate(831.3098605006394 130.49946591890307) rotate(0 -0.5423950767237784 58.523907961072325)"><path d="M-1.05 0.14 C-1.33 19.43, -0.78 97.08, -0.48 116.68 M0.6 -0.83 C0.01 18.53, -1.64 98.47, -1.68 117.87" stroke="#000000" stroke-width="2" fill="none"></path></g></g><g stroke-linecap="round"><g transform="translate(815.6941613918871 423.9209084974578) rotate(0 -0.6291444302955824 59.29219547918524)"><path d="M0.49 1.1 C0.45 20.74, -0.43 98.69, -0.53 117.95 M-0.71 0.64 C-0.94 19.91, -1.71 96.66, -1.75 116.15" stroke="#000000" stroke-width="2" fill="none"></path></g></g><g stroke-linecap="round"><g transform="translate(992.2461850738532 424.4337660755444) rotate(0 0.015729951029697986 58.51712264605791)"><path d="M-0.35 0.67 C-0.39 20.2, -0.63 96.89, -0.45 116.15 M1.66 -0.03 C1.45 19.7, -1.42 97.56, -1.63 117.06" stroke="#000000" stroke-width="2" fill="none"></path></g></g><g stroke-linecap="round"><g transform="translate(972.322137222669 129.93395427107396) rotate(0 0.06617031456437417 58.91531916421832)"><path d="M-0.82 0.42 C-0.71 19.81, 0.58 97.41, 0.81 116.92 M0.95 -0.41 C0.96 19.1, 0.43 98.35, 0.29 118.24" stroke="#000000" stroke-width="2" fill="none"></path></g></g><g stroke-linecap="round"><g transform="translate(765.357512705742 130.63372401633433) rotate(0 9.878745196024738 -0.060496431823651164)"><path d="M0.87 -1.09 C4 -1.12, 17.02 -1.01, 19.89 -1.01 M-0.13 0.96 C2.81 1.1, 15.9 0.22, 19.34 0" stroke="#000000" stroke-width="2" fill="none"></path></g></g><g stroke-linecap="round"><g transform="translate(749.7418135969897 424.05516659488904) rotate(0 9.252171697016593 -0.04375947788355461)"><path d="M-0.53 0.62 C2.56 0.31, 15.84 -0.66, 19.03 -0.7 M1.4 -0.11 C4.28 0.25, 15.33 0.74, 18.03 0.47" stroke="#000000" stroke-width="2" fill="none"></path></g></g><g stroke-linecap="round"><g transform="translate(926.2938372789558 424.56802417297564) rotate(0 9.798555201837644 -0.501261515624492)"><path d="M0.67 -0.45 C3.84 -0.26, 15.05 0.71, 17.95 0.75 M-0.44 -1.73 C3.17 -1.85, 16.57 -1.43, 20.04 -0.98" stroke="#000000" stroke-width="2" fill="none"></path></g></g><g stroke-linecap="round"><g transform="translate(906.3697894277716 130.06821236850521) rotate(0 8.95003676376382 -0.15441920883188232)"><path d="M0.42 0.81 C3.44 1.05, 15.57 0.67, 18.72 0.61 M-0.82 0.2 C1.96 0.15, 14.31 -0.88, 17.55 -1.2" stroke="#000000" stroke-width="2" fill="none"></path></g></g><g stroke-linecap="round"><g transform="translate(810.367594259624 129.63170770555803) rotate(0 9.80534051685197 -0.5227484212769582)"><path d="M0.14 -0.48 C3.07 -0.18, 15.25 0.81, 18.48 0.73 M-1.24 -1.78 C1.99 -1.73, 17.48 -1.28, 20.85 -1" stroke="#000000" stroke-width="2" fill="none"></path></g></g><g stroke-linecap="round"><g transform="translate(794.7518951508716 423.05315028411275) rotate(0 8.496880036155403 0.0016108332294777483)"><path d="M-0.1 -0.7 C3.09 -0.74, 15.33 0.11, 18.61 0.38 M-1.62 1.54 C1.41 1.08, 13.95 -1.13, 17.39 -1.54" stroke="#000000" stroke-width="2" fill="none"></path></g></g><g stroke-linecap="round"><g transform="translate(971.3039188328378 423.56600786219934) rotate(0 9.717422017749186 -0.27884474034291884)"><path d="M-0.45 -1.19 C2.93 -1.48, 16.66 -1.37, 19.88 -1.1 M1.52 0.8 C4.83 0.56, 16.58 0.27, 19.33 -0.15" stroke="#000000" stroke-width="2" fill="none"></path></g></g><g stroke-linecap="round"><g transform="translate(951.3798709816535 129.06619605772892) rotate(0 9.761701882640637 0.04750062567183022)"><path d="M0.81 -0.42 C4.24 -0.46, 16.62 -0.09, 19.74 0.16 M-0.22 -1.68 C3.18 -1.54, 15.91 1.62, 19.11 1.78" stroke="#000000" stroke-width="2" fill="none"></path></g></g><g stroke-linecap="round"><g transform="translate(767.666913709648 249.7338663687981) rotate(0 8.594152575335443 -0.8818261392342492)"><path d="M-0.62 -0.39 C2.17 -0.63, 14.87 -1.13, 17.81 -1.08 M1.25 -1.64 C3.88 -1.8, 14.86 -0.58, 17.38 -0.11" stroke="#000000" stroke-width="2" fill="none"></path></g></g><g stroke-linecap="round"><g transform="translate(752.0512146008957 543.1553089473528) rotate(0 8.362663560709962 0.0844441132686029)"><path d="M-0.52 0.38 C2.37 0.65, 14.32 1.02, 17.25 0.93 M1.4 -0.46 C4.18 -0.45, 14.03 -0.96, 16.52 -0.7" stroke="#000000" stroke-width="2" fill="none"></path></g></g><g stroke-linecap="round"><g transform="translate(928.6032382828619 543.6681665254393) rotate(0 8.33343094821089 0.4611464005470509)"><path d="M-1.19 0.75 C1.32 0.78, 12.65 -0.27, 15.72 -0.25 M0.39 0.09 C3.2 0.35, 15.14 1.34, 17.85 1.15" stroke="#000000" stroke-width="2" fill="none"></path></g></g><g stroke-linecap="round"><g transform="translate(908.6791904316776 249.16835472096898) rotate(0 8.282786361477406 -0.45065344541797003)"><path d="M-0.42 0.61 C2.34 0.54, 13.93 0.65, 16.98 0.4 M1.57 -0.12 C4.15 -0.63, 13.43 -1.52, 16.12 -1.51" stroke="#000000" stroke-width="2" fill="none"></path></g></g><g stroke-linecap="round"><g transform="translate(812.67699526353 248.7318500580218) rotate(0 8.539076310000496 0.057944700540986105)"><path d="M-0.48 -0.65 C2.62 -0.61, 14.83 0.29, 17.56 0.41 M1.47 1.62 C4.57 1.28, 14.19 -1.47, 17 -1.5" stroke="#000000" stroke-width="2" fill="none"></path></g></g><g stroke-linecap="round"><g transform="translate(797.0612961547777 542.1532926365765) rotate(0 8.106932300692506 0.5897904961863674)"><path d="M0.42 0.93 C3.35 0.84, 14.44 -0.18, 17.03 -0.15 M-0.81 0.37 C2.02 0.44, 12.99 1.48, 16.19 1.31" stroke="#000000" stroke-width="2" fill="none"></path></g></g><g stroke-linecap="round"><g transform="translate(973.6133198367438 542.666150214663) rotate(0 8.126534591997029 -0.27535555413925294)"><path d="M0.75 -1.1 C3.58 -0.84, 13.75 0.25, 16.57 0.42 M-0.32 0.93 C2.38 0.93, 12.55 -1.53, 15.49 -1.48" stroke="#000000" stroke-width="2" fill="none"></path></g></g><g stroke-linecap="round"><g transform="translate(953.6892719855596 248.16633841019268) rotate(0 8.346900170510594 0.1391034362808341)"><path d="M0.61 0.16 C3.34 0.4, 14.67 1.27, 17.23 1.05 M-0.54 -0.81 C2.01 -0.84, 13.34 -0.58, 16.49 -0.52" stroke="#000000" stroke-width="2" fill="none"></path></g></g><g stroke-linecap="round" transform="translate(844.7697794308356 177.16901764129022) rotate(0 3.8095310756137906 3.8095310756138474)"><path d="M2.18 -0.66 C2.97 -1.06, 4.43 -0.74, 5.44 -0.13 C6.45 0.47, 8.03 2.03, 8.25 2.99 C8.47 3.94, 7.1 4.96, 6.77 5.61 C6.44 6.26, 6.75 6.65, 6.26 6.9 C5.77 7.15, 4.75 7.2, 3.83 7.13 C2.91 7.06, 1.3 7.1, 0.76 6.48 C0.23 5.86, 0.51 4.36, 0.63 3.41 C0.76 2.46, 1.05 1.44, 1.5 0.78 C1.95 0.13, 2.69 -0.45, 3.35 -0.5 C4 -0.55, 5.47 0.24, 5.44 0.48 M3.51 1.06 C4.3 1.13, 6.55 -0.33, 7.43 0.12 C8.32 0.57, 9.01 2.86, 8.83 3.77 C8.64 4.69, 7.24 4.88, 6.32 5.61 C5.39 6.34, 3.97 8.02, 3.27 8.16 C2.58 8.29, 2.45 7.07, 2.13 6.43 C1.8 5.79, 1.47 4.81, 1.32 4.32 C1.18 3.83, 1.26 4.04, 1.27 3.49 C1.27 2.94, 0.99 1.8, 1.37 1.03 C1.75 0.26, 2.99 -0.99, 3.53 -1.12 C4.06 -1.24, 4.24 -0.1, 4.61 0.29" stroke="none" stroke-width="0" fill="000000"></path><path d="M6.17 0.66 C6.91 1.06, 6.73 2.03, 7.04 2.82 C7.35 3.6, 8.34 4.79, 8.04 5.38 C7.74 5.97, 6.14 5.96, 5.24 6.36 C4.35 6.76, 3.44 7.76, 2.65 7.78 C1.86 7.79, 1.03 7, 0.5 6.45 C-0.03 5.89, -0.57 5.32, -0.52 4.45 C-0.47 3.57, 0.27 2.06, 0.83 1.19 C1.39 0.31, 1.94 -0.64, 2.82 -0.8 C3.7 -0.96, 5.36 0, 6.12 0.23 C6.87 0.46, 7.3 0.59, 7.36 0.57 M3.18 -1.13 C3.95 -1.1, 4.56 0.11, 5.49 0.68 C6.42 1.26, 8.34 1.43, 8.77 2.3 C9.2 3.17, 8.69 4.83, 8.08 5.89 C7.47 6.96, 6.04 8.42, 5.11 8.69 C4.18 8.97, 3.21 7.95, 2.49 7.54 C1.77 7.13, 0.97 7.25, 0.78 6.25 C0.6 5.25, 1.41 2.31, 1.37 1.56 C1.34 0.82, -0.04 2, 0.56 1.78 C1.17 1.55, 4.57 0.72, 4.99 0.19 C5.41 -0.34, 3.19 -1.61, 3.1 -1.4" stroke="#000000" stroke-width="2" fill="none"></path></g><g stroke-linecap="round" transform="translate(863.2878671955837 177.00226935153069) rotate(0 3.8095310756137906 3.8095310756138474)"><path d="M4.54 0.51 C5.32 0.37, 5.19 0.05, 5.81 0.65 C6.44 1.25, 8.25 3.08, 8.3 4.12 C8.34 5.17, 6.69 6.39, 6.1 6.9 C5.5 7.41, 5.47 7.29, 4.74 7.19 C4.01 7.1, 2.4 6.63, 1.73 6.33 C1.06 6.03, 1.06 5.87, 0.72 5.38 C0.38 4.89, -0.4 4.08, -0.33 3.41 C-0.27 2.73, 0.16 1.93, 1.11 1.34 C2.07 0.75, 4.65 0.1, 5.41 -0.14 C6.16 -0.39, 5.89 -0.28, 5.65 -0.14 M3.96 -0.81 C4.68 -0.91, 6.78 0.4, 7.56 1.24 C8.35 2.09, 8.96 3.38, 8.67 4.27 C8.38 5.16, 6.44 6.17, 5.82 6.57 C5.2 6.97, 5.63 6.45, 4.94 6.69 C4.24 6.92, 2.58 8.26, 1.64 7.99 C0.7 7.72, -0.41 5.95, -0.71 5.06 C-1.01 4.18, -0.43 3.28, -0.14 2.69 C0.14 2.09, 0.07 1.7, 1 1.49 C1.94 1.27, 4.89 1.43, 5.46 1.39 C6.03 1.34, 4.5 1.22, 4.42 1.22" stroke="none" stroke-width="0" fill="000000"></path><path d="M3.06 -0.54 C3.63 -0.76, 4.54 -0.68, 5.12 -0.35 C5.69 -0.01, 6.16 0.5, 6.5 1.49 C6.83 2.47, 7.38 4.54, 7.15 5.58 C6.92 6.62, 5.76 7.36, 5.13 7.74 C4.5 8.13, 3.88 8.04, 3.34 7.88 C2.8 7.71, 2.41 7.32, 1.89 6.75 C1.37 6.18, 0.33 5.16, 0.23 4.44 C0.13 3.72, 0.88 3.29, 1.31 2.43 C1.74 1.56, 2.18 -0.45, 2.81 -0.76 C3.44 -1.06, 4.94 0.54, 5.09 0.61 M2.56 1.62 C3.07 0.92, 3.1 -0.32, 3.94 -0.56 C4.78 -0.81, 7.15 -0.53, 7.58 0.17 C8.01 0.87, 6.8 2.41, 6.5 3.66 C6.2 4.91, 6 7.21, 5.79 7.69 C5.59 8.18, 5.78 6.58, 5.27 6.58 C4.77 6.58, 3.63 7.83, 2.75 7.71 C1.87 7.59, 0.51 6.79, -0.02 5.86 C-0.54 4.92, -0.77 2.84, -0.41 2.1 C-0.04 1.36, 1.9 1.5, 2.17 1.41 C2.44 1.32, 1.41 1.83, 1.24 1.57" stroke="#000000" stroke-width="2" fill="none"></path></g><g stroke-linecap="round" transform="translate(880.8668871347413 175.90450918590386) rotate(0 3.8095310756137906 3.8095310756138474)"><path d="M2.79 -0.46 C3.3 -0.75, 3.56 0.61, 4.35 0.85 C5.14 1.08, 6.85 0.38, 7.52 0.96 C8.2 1.54, 8.64 3.44, 8.4 4.32 C8.16 5.2, 6.97 5.6, 6.09 6.22 C5.22 6.84, 3.89 8, 3.14 8.03 C2.4 8.05, 1.99 7.03, 1.6 6.37 C1.21 5.71, 0.88 4.69, 0.8 4.07 C0.72 3.46, 0.8 3.28, 1.13 2.67 C1.45 2.06, 2.39 0.95, 2.74 0.38 C3.09 -0.18, 3.13 -0.73, 3.22 -0.69 M4.75 1.56 C5.37 2.07, 6.93 3.05, 7.53 3.42 C8.13 3.79, 8.51 3.18, 8.35 3.78 C8.18 4.39, 7.49 6.53, 6.53 7.06 C5.56 7.58, 3.35 7.23, 2.54 6.93 C1.74 6.63, 2.19 5.8, 1.69 5.27 C1.19 4.74, -0.26 4.45, -0.45 3.73 C-0.64 3.02, -0.15 1.33, 0.54 0.96 C1.24 0.59, 2.65 1.54, 3.72 1.51 C4.78 1.49, 6.45 0.83, 6.95 0.82 C7.44 0.81, 6.76 1.46, 6.67 1.46" stroke="none" stroke-width="0" fill="000000"></path><path d="M4.48 -0.07 C5.25 -0.01, 6.03 0.46, 6.42 1.17 C6.81 1.87, 6.74 3.38, 6.83 4.17 C6.93 4.96, 7.38 5.34, 7 5.9 C6.63 6.45, 5.48 7.23, 4.58 7.5 C3.68 7.76, 2.32 7.96, 1.61 7.49 C0.9 7.02, 0.44 5.48, 0.31 4.65 C0.18 3.82, 0.33 3.36, 0.84 2.49 C1.35 1.62, 2.7 -0.34, 3.35 -0.56 C4.01 -0.77, 4.27 0.95, 4.77 1.18 C5.27 1.4, 6.38 1.03, 6.35 0.8 M5.31 -0.61 C5.8 -0.55, 5.7 1.42, 5.88 1.92 C6.05 2.42, 6.21 1.84, 6.34 2.38 C6.47 2.91, 6.71 4.13, 6.68 5.13 C6.64 6.14, 7.06 7.88, 6.14 8.39 C5.23 8.9, 2.05 8.72, 1.19 8.18 C0.33 7.65, 1.04 6.2, 1 5.19 C0.96 4.18, 0.91 2.86, 0.97 2.14 C1.02 1.41, 0.63 1.35, 1.32 0.86 C2.01 0.38, 4.46 -0.47, 5.11 -0.77 C5.75 -1.07, 5.51 -0.99, 5.19 -0.92" stroke="#000000" stroke-width="2" fill="none"></path></g><g transform="translate(780.924329915852 140.69363343412977) rotate(0 19 11.5)"><text x="0" y="18" font-family="Helvetica, Segoe UI Emoji" font-size="20px" fill="#000000" text-anchor="start" style="white-space: pre;" direction="ltr">0.11</text></g><g transform="translate(765.3086308070997 434.1150760126845) rotate(0 20 11.5)"><text x="0" y="18" font-family="Helvetica, Segoe UI Emoji" font-size="20px" fill="#000000" text-anchor="start" style="white-space: pre;" direction="ltr">0.55</text></g><g transform="translate(941.8606544890658 434.6279335907711) rotate(0 20 11.5)"><text x="0" y="18" font-family="Helvetica, Segoe UI Emoji" font-size="20px" fill="#000000" text-anchor="start" style="white-space: pre;" direction="ltr">0.32</text></g><g transform="translate(921.9366066378816 140.12812178630065) rotate(0 20 11.5)"><text x="0" y="18" font-family="Helvetica, Segoe UI Emoji" font-size="20px" fill="#000000" text-anchor="start" style="white-space: pre;" direction="ltr">0.28</text></g><g transform="translate(785.6788065299975 170.8618770765887) rotate(0.2716758202664933 11.5 11.5)"><text x="0" y="18" font-family="Helvetica, Segoe UI Emoji" font-size="20px" fill="#000000" text-anchor="start" style="white-space: pre;" direction="ltr">....</text></g><g transform="translate(770.0631074212451 464.28331965514343) rotate(0.2716758202664933 11.5 11.5)"><text x="0" y="18" font-family="Helvetica, Segoe UI Emoji" font-size="20px" fill="#000000" text-anchor="start" style="white-space: pre;" direction="ltr">....</text></g><g transform="translate(946.6151311032113 464.79617723323) rotate(0.2716758202664933 11.5 11.5)"><text x="0" y="18" font-family="Helvetica, Segoe UI Emoji" font-size="20px" fill="#000000" text-anchor="start" style="white-space: pre;" direction="ltr">....</text></g><g transform="translate(926.691083252027 170.2963654287596) rotate(0.2716758202664933 11.5 11.5)"><text x="0" y="18" font-family="Helvetica, Segoe UI Emoji" font-size="20px" fill="#000000" text-anchor="start" style="white-space: pre;" direction="ltr">....</text></g><g transform="translate(777.7546788397551 206.78459733319312) rotate(0 20 11.5)"><text x="0" y="18" font-family="Helvetica, Segoe UI Emoji" font-size="20px" fill="#000000" text-anchor="start" style="white-space: pre;" direction="ltr">0.72</text></g><g transform="translate(762.1389797310028 500.20603991174784) rotate(0 20 11.5)"><text x="0" y="18" font-family="Helvetica, Segoe UI Emoji" font-size="20px" fill="#000000" text-anchor="start" style="white-space: pre;" direction="ltr">0.96</text></g><g transform="translate(938.6910034129689 500.71889748983443) rotate(0 20 11.5)"><text x="0" y="18" font-family="Helvetica, Segoe UI Emoji" font-size="20px" fill="#000000" text-anchor="start" style="white-space: pre;" direction="ltr">0.49</text></g><g transform="translate(918.7669555617847 206.219085685364) rotate(0 20 11.5)"><text x="0" y="18" font-family="Helvetica, Segoe UI Emoji" font-size="20px" fill="#000000" text-anchor="start" style="white-space: pre;" direction="ltr">0.34</text></g><g transform="translate(765.0760745353675 251.1597698320312) rotate(0 34.921294223157474 18.575156501679487)"><text x="0" y="26.150313003358974" font-family="Virgil, Segoe UI Emoji" font-size="29.720250402687178px" fill="#000000" text-anchor="start" style="white-space: pre;" direction="ltr">most</text></g><g transform="translate(911.8993137435252 259.0467013579914) rotate(0 32.5 18.5)"><text x="0" y="26" font-family="Virgil, Segoe UI Emoji" font-size="29.720250402687178px" fill="#000000" text-anchor="start" style="white-space: pre;" direction="ltr">food</text></g><g stroke-linecap="round" transform="translate(652.0482750290653 54.027898043181835) rotate(0 213.1207291020835 288.96834003430234)"><path d="M0.59 0.8 C165.64 0.61, 331.42 0.1, 427.26 -0.97 M0.23 0.37 C147.54 -1.68, 295.14 -1.2, 426.18 -0.05 M425.9 0.8 C426.62 147.6, 426.41 294.74, 425.46 578.04 M425.85 0.02 C424.97 209.79, 424.25 420.59, 426.54 577.57 M426.65 577.86 C291.39 576.36, 154.74 576.24, -0.77 578.8 M426.75 578.21 C331.05 577.51, 236.58 577.47, -0.32 578.42 M0.3 577.91 C2.12 438.65, 2.66 299.74, 0.38 -0.11 M0.06 577.87 C0.69 427.85, 0.19 278.03, 0.39 -0.12" stroke="#000000" stroke-width="2" fill="none"></path></g><g transform="translate(1164.6441555068832 337.895485013133) rotate(0 84 12.5)"><text x="84" y="18" font-family="Virgil, Segoe UI Emoji" font-size="20px" fill="#000000" text-anchor="middle" style="white-space: pre;" direction="ltr">Most microbats...</text></g><g stroke-linecap="round"><g transform="translate(1339.9779804954965 315.47006916072587) rotate(0 0.016902400086109992 26.120304160057856)"><path d="M0.98 -0.39 C0.93 8.4, -0.82 44.84, -1.08 53.88 M0.04 -1.64 C0.4 7.36, 1.34 43.4, 1.06 52.35" stroke="#000000" stroke-width="1" fill="none"></path></g></g><g stroke-linecap="round"><g transform="translate(1163.9085771791322 334.0036991495107) rotate(0 166.92543376833146 0.4804521431425428)"><path d="M0.94 -0.79 C56.41 -0.92, 278.27 -0.18, 333.88 0.02 M-0.03 1.41 C55.14 1.42, 276.97 2.09, 332.63 1.56" stroke="#000000" stroke-width="1" fill="none"></path></g></g><g stroke-linecap="round"><g transform="translate(1397.717332343919 309.76740624936826) rotate(0 0.03314729335716038 29.19689163102248)"><path d="M-0.84 0.06 C-0.9 9.76, -0.24 49.49, 0.06 59.35 M0.92 -0.96 C0.67 8.89, -0.82 47.19, -0.86 57.46" stroke="#000000" stroke-width="1" fill="none"></path></g></g><g stroke-linecap="round"><g transform="translate(1431.9333098120642 306.9160911091076) rotate(0 0.3004985167783616 27.155084824428258)"><path d="M1.13 -0.88 C1.1 7.93, 0.36 44.57, 0.28 53.58 M0.26 1.28 C0.06 10.24, -0.51 46.34, -0.53 55.19" stroke="#000000" stroke-width="1" fill="none"></path></g></g><g stroke-linecap="round"><g transform="translate(1495.375291941008 314.7572485333699) rotate(0 0.3542860669037964 24.85532761878281)"><path d="M-0.59 0.37 C-0.46 8.62, 0.92 41.83, 1.17 50.19 M1.3 -0.48 C1.33 7.35, 0.95 40.14, 0.84 48.33" stroke="#000000" stroke-width="1" fill="none"></path></g></g><g transform="translate(1343.565621166736 310.7470581865349) rotate(0 23.5 12.5)"><text x="23.5" y="18" font-family="Virgil, Segoe UI Emoji" font-size="20px" fill="#000000" text-anchor="middle" style="white-space: pre;" direction="ltr">most</text></g><g transform="translate(1441.297808985767 310.7470581865348) rotate(0 22 12.5)"><text x="22" y="18" font-family="Virgil, Segoe UI Emoji" font-size="20px" fill="#000000" text-anchor="middle" style="white-space: pre;" direction="ltr">food</text></g><g transform="translate(1402.761087417865 308.60856367363044) rotate(0 8.5 12.5)"><text x="8.5" y="18" font-family="Virgil, Segoe UI Emoji" font-size="20px" fill="#000000" text-anchor="middle" style="white-space: pre;" direction="ltr">...</text></g><g transform="translate(1401.3355114248266 337.121845599582) rotate(0 8.5 12.5)"><text x="8.5" y="18" font-family="Virgil, Segoe UI Emoji" font-size="20px" fill="#000000" text-anchor="middle" style="white-space: pre;" direction="ltr">...</text></g><g transform="translate(1347.8778797406844 343.44453458507235) rotate(0 14.5 11.5)"><text x="14.5" y="18" font-family="Helvetica, Segoe UI Emoji" font-size="20px" fill="#000000" text-anchor="middle" style="white-space: pre;" direction="ltr">.08</text></g><g transform="translate(1444.7544085181146 342.01460850273463) rotate(0 14.5 11.5)"><text x="14.5" y="18" font-family="Helvetica, Segoe UI Emoji" font-size="20px" fill="#000000" text-anchor="middle" style="white-space: pre;" direction="ltr">.73</text></g><g stroke-linecap="round"><g transform="translate(1104.1924803266213 330.74798849750186) rotate(0 19.98240165134837 -0.027172824242427396)"><path d="M1.15 0.85 C7.54 1.08, 31.07 1.03, 37.39 0.93 M0.29 0.25 C7.15 0.14, 33.27 -1.24, 39.67 -1.06" stroke="#000000" stroke-width="1" fill="none"></path></g><g transform="translate(1104.1924803266213 330.74798849750186) rotate(0 19.98240165134837 -0.027172824242427396)"><path d="M23.19 4.49 C26.16 5.48, 28.99 3.67, 40.6 -1.2 M21.93 5.26 C27.51 3.44, 33.4 2.08, 38.87 -0.96" stroke="#000000" stroke-width="1" fill="none"></path></g><g transform="translate(1104.1924803266213 330.74798849750186) rotate(0 19.98240165134837 -0.027172824242427396)"><path d="M22.96 -8.58 C25.93 -4.74, 28.81 -3.68, 40.6 -1.2 M21.69 -7.81 C27.39 -5.16, 33.36 -2.06, 38.87 -0.96" stroke="#000000" stroke-width="1" fill="none"></path></g></g><g transform="translate(313.9861396328182 515.6677637262858) rotate(0 162.87565097827456 51.04476143099038)"><text x="162.87565097827462" y="20.522380715495185" font-family="Helvetica, Segoe UI Emoji" font-size="22.186543984401645px" fill="#000000" text-anchor="middle" style="white-space: pre;" direction="ltr">We use the CountVectorizer </text><text x="162.87565097827462" y="46.04476143099037" font-family="Helvetica, Segoe UI Emoji" font-size="22.186543984401645px" fill="#000000" text-anchor="middle" style="white-space: pre;" direction="ltr">from Scikit-Learn to tokenize our </text><text x="162.87565097827462" y="71.56714214648555" font-family="Helvetica, Segoe UI Emoji" font-size="22.186543984401645px" fill="#000000" text-anchor="middle" style="white-space: pre;" direction="ltr">document into candidate </text><text x="162.87565097827462" y="97.08952286198074" font-family="Helvetica, Segoe UI Emoji" font-size="22.186543984401645px" fill="#000000" text-anchor="middle" style="white-space: pre;" direction="ltr">kewords/keyphrases.</text></g><g transform="translate(672.3157730426487 643.0108376728026) rotate(0 208 57.5)"><text x="208" y="22.75" font-family="Helvetica, Segoe UI Emoji" font-size="25.02305036066932px" fill="#000000" text-anchor="middle" style="white-space: pre;" direction="ltr">We embed the seeded keywords </text><text x="208" y="51.5" font-family="Helvetica, Segoe UI Emoji" font-size="25.02305036066932px" fill="#000000" text-anchor="middle" style="white-space: pre;" direction="ltr">(e.g., the word “sonar”) and calculate </text><text x="208" y="80.25" font-family="Helvetica, Segoe UI Emoji" font-size="25.02305036066932px" fill="#000000" text-anchor="middle" style="white-space: pre;" direction="ltr">a weighted average with </text><text x="208" y="109" font-family="Helvetica, Segoe UI Emoji" font-size="25.02305036066932px" fill="#000000" text-anchor="middle" style="white-space: pre;" direction="ltr">the document embedding (1:3). </text></g><g transform="translate(1124.2845685902937 400.35702887221646) rotate(0 230.0000000000001 52)"><text x="230" y="21" font-family="Helvetica, Segoe UI Emoji" font-size="22.64449030606811px" fill="#000000" text-anchor="middle" style="white-space: pre;" direction="ltr">We calculate the cosine similarity between all </text><text x="230" y="47" font-family="Helvetica, Segoe UI Emoji" font-size="22.64449030606811px" fill="#000000" text-anchor="middle" style="white-space: pre;" direction="ltr">candidate keywords and the input document. </text><text x="230" y="73" font-family="Helvetica, Segoe UI Emoji" font-size="22.64449030606811px" fill="#000000" text-anchor="middle" style="white-space: pre;" direction="ltr">The keywords that have the largest similarity </text><text x="230" y="99" font-family="Helvetica, Segoe UI Emoji" font-size="22.64449030606811px" fill="#000000" text-anchor="middle" style="white-space: pre;" direction="ltr">to the document are extracted.</text></g><g stroke-linecap="round" transform="translate(691.1918020134374 407.9889684135886) rotate(0 176.79000480724255 101.66537195546775)"><path d="M-0.77 -1.23 C79.66 -1.21, 158.97 -2.86, 354.18 -0.12 M352.59 0.38 C350.65 51.56, 353.87 106.7, 354.99 204.52 M354.06 202.37 C272.12 206.01, 188.17 206.04, -0.93 203.91 M1.06 203.39 C0.89 136.05, 1.27 65.58, -0.4 -1.05" stroke="#c92a2a" stroke-width="1.5" fill="none" stroke-dasharray="8 9"></path></g><g stroke-linecap="round" transform="translate(691.1918020134374 121.98896841358862) rotate(0 176.79000480724255 87.1842942892689)"><path d="M-0.29 -1.14 C76.97 -3.21, 156.6 -3.18, 353.53 0.78 M353.1 0.98 C351.72 57.03, 353.56 109.67, 351.99 172.79 M353.41 175.17 C239.02 175.91, 127.48 176.67, -1.26 175.37 M-1.3 172.41 C0.61 130.48, 1.16 86.45, 0.09 -1.32" stroke="#c92a2a" stroke-width="1.5" fill="none" stroke-dasharray="8 9"></path></g></svg>